HIERARCHY
ROOT Root
{
	OFFSET 0.00000 0.00000 0.00000
	CHANNELS 6 Xposition Yposition Zposition Zrotation Xrotation Yrotation
	JOINT Hip
	{
		OFFSET 0 0 0	
		CHANNELS 3 Zrotation Xrotation Yrotation
		JOINT Tummy
		{
			OFFSET 0 0.04 0	
			CHANNELS 3 Zrotation Xrotation Yrotation
			JOINT ChestBottom
			{
				OFFSET 0 0.194 0	
				CHANNELS 3 Zrotation Xrotation Yrotation
				JOINT ChestTop
				{
					OFFSET 0 0.166 0	
					CHANNELS 3 Zrotation Xrotation Yrotation
					JOINT LeftCollar
					{
						OFFSET 0 0.1 0	
						CHANNELS 3 Zrotation Xrotation Yrotation
						JOINT LeftUpperArm
						{
							OFFSET 0.156 -0.02 0.03	
							CHANNELS 3 Zrotation Xrotation Yrotation
							JOINT LeftForeArm
							{
								OFFSET 0.035 -0.27 -0.01	
								CHANNELS 3 Zrotation Xrotation Yrotation
								JOINT LeftHand
								{
									OFFSET 0.01 -0.27 0.01	
									CHANNELS 3 Zrotation Xrotation Yrotation
									End Site
									{
										OFFSET 0 -0.15 0
									}
								}
							}
						}
					}
					JOINT RightCollar
					{
						OFFSET 0 0.1 0	
						CHANNELS 3 Zrotation Xrotation Yrotation
						JOINT RightUpperArm
						{
							OFFSET -0.156 -0.02 0.03	
							CHANNELS 3 Zrotation Xrotation Yrotation
							JOINT RightForeArm
							{
								OFFSET -0.035 -0.27 -0.01	
								CHANNELS 3 Zrotation Xrotation Yrotation
								JOINT RightHand
								{
									OFFSET -0.01 -0.27 0.01	
									CHANNELS 3 Zrotation Xrotation Yrotation
									End Site
									{
										OFFSET 0 -0.15 0
									}
								}
							}
						}
					}
					JOINT Neck
					{
						OFFSET 0 0.1 0	
						CHANNELS 3 Zrotation Xrotation Yrotation
						JOINT Head
						{
							OFFSET 0 0.127 0.03	
							CHANNELS 3 Zrotation Xrotation Yrotation
							End Site
							{
								OFFSET 0 0.127 0.03
							}
						}
					}
				}
			}
		}
	}
	JOINT LeftHip
	{
		OFFSET 0 0 0	
		CHANNELS 3 Zrotation Xrotation Yrotation
		JOINT LeftThigh
		{
			OFFSET 0.088 -0.06 0	
			CHANNELS 3 Zrotation Xrotation Yrotation
			JOINT LeftLowerLeg
			{
				OFFSET 0 -0.39 0.02	
				CHANNELS 3 Zrotation Xrotation Yrotation
				JOINT LeftFootTop
				{
					OFFSET 0 -0.43 -0.02	
					CHANNELS 3 Zrotation Xrotation Yrotation
					JOINT LeftFootFront
					{
						OFFSET 0 -0.07 0.085	
						CHANNELS 3 Zrotation Xrotation Yrotation
						End Site
						{
							OFFSET 0 -0.005 0.09
						}
					}
				}
				JOINT LeftHeel
				{
					OFFSET 0 -0.43 -0.02	
					CHANNELS 3 Zrotation Xrotation Yrotation
					End Site
					{
						OFFSET 0 -0.075 -0.05
					}
				}
			}
		}
	}
	JOINT RightHip
	{
		OFFSET 0 0 0	
		CHANNELS 3 Zrotation Xrotation Yrotation
		JOINT RightThigh
		{
			OFFSET -0.088 -0.06 0	
			CHANNELS 3 Zrotation Xrotation Yrotation
			JOINT RightLowerLeg
			{
				OFFSET 0 -0.39 0.02	
				CHANNELS 3 Zrotation Xrotation Yrotation
				JOINT RightFootTop
				{
					OFFSET 0 -0.43 -0.02	
					CHANNELS 3 Zrotation Xrotation Yrotation
					JOINT RightFootFront
					{
						OFFSET 0 -0.07 0.085	
						CHANNELS 3 Zrotation Xrotation Yrotation
						End Site
						{
							OFFSET 0 -0.005 0.09
						}
					}
				}
				JOINT RightHeel
				{
					OFFSET 0 -0.43 -0.02	
					CHANNELS 3 Zrotation Xrotation Yrotation
					End Site
					{
						OFFSET 0 -0.075 -0.05
					}
				}
			}
		}
	}
}
MOTION
Frames: 18
Frame Time: 0.05
-0.29997 0.76742 -0.020468 -0 0 -0 -46.123 56.35 58.702 -4.6185 -4.7658 -0.78956 -4.6185 -4.7658 -0.78956 -3.8736 -4.0078 -0.63712 -0 0 -0 -20.417 -45.513 -28.079 11.807 5.6065 5.7196 3.6195 -20.819 -41.485 -0 0 -0 7.6782 -34.732 5.1892 30.419 -41.541 -5.732 -0.1032 2.8967 -0.21486 7.0192 -21.034 -8.79 3.1068 -25.09 -8.9461 -46.123 56.35 58.702 115 -62.973 147.2 4.9955 62.123 -16.389 -0 0 -0 -9.6388e-07 -19.602 -5.6419e-07 -0 0 -0 -46.123 56.35 58.702 -89.151 -46.313 -58.621 2.3922 6.0882 20.795 -0 0 -0 -0 0 4.2689e-07 -0 0 -0 
-0.32043 0.77932 -0.0050933 -0 0 -0 -42.545 56.242 55.55 -5.2988 -4.5422 -1.3075 -5.2988 -4.5422 -1.3075 -4.4424 -3.8239 -1.0697 -0 0 -0 -16.779 -45.565 -23.878 12.41 6.2351 4.9534 5.2093 -21.423 -39.929 -0 0 -0 7.6311 -31.606 4.1484 43.638 -46.307 5.902 1.2607 4.9382 1.9989 8.0522 -21.034 -7.8629 3.4206 -24.969 -8.4382 -42.545 56.242 55.55 105.18 -64.612 137.65 4.6243 57.115 -16.167 -0 0 -0 5.0426e-10 -17.43 3.5251e-06 -0 0 -0 -42.545 56.242 55.55 -89.925 -46.758 -56.209 6.1183 7.7878 19.601 -0 0 -0 0 0 -1.3874e-06 -0 0 -0 
-0.34223 0.79194 0.012457 -0 0 -0 -38.3 55.649 52.328 -5.7729 -3.9014 -1.756 -5.7729 -3.9014 -1.756 -4.8399 -3.2894 -1.4483 -0 0 -0 -13.577 -45.341 -21.803 12.376 6.5305 4.9599 6.5034 -21.472 -38.377 -0 0 -0 7.3531 -29.033 2.9236 56.101 -48.909 16.388 2.5978 6.4471 2.8454 9.1414 -21.766 -6.8197 3.9438 -25.24 -7.8204 -38.3 55.649 52.328 92.729 -66.277 125.48 4.8132 51.627 -16.597 -0 0 -0 3.1733e-07 -15.249 4.7835e-06 -0 0 -0 -38.3 55.649 52.328 -89.765 -46.687 -53.53 9.9875 9.284 19.308 -0 0 -0 -0 0 4.2689e-07 -0 0 -0 
-0.36619 0.80491 0.032263 -0 0 -0 -33.277 54.24 48.487 -5.9597 -2.9792 -2.1621 -5.9597 -2.9791 -2.1621 -4.9979 -2.5179 -1.7952 -0 0 -0 -10.925 -44.611 -20.431 11.856 6.4333 5.8734 7.0368 -21.959 -37.26 -0 0 -0 7.0996 -26.275 2.7341 67.1 -50.457 25.806 3.315 8.2353 2.2833 10.985 -22.853 -4.642 5.4424 -25.66 -6.063 -33.277 54.24 48.487 76.42 -67.032 108.54 5.2244 45.686 -16.896 -0 0 -0 7.745e-07 -13.349 6.6182e-06 -0 0 -0 -33.277 54.24 48.487 -89.688 -47.016 -52.514 13.577 12.234 21.009 -0 0 -0 0 0 -5.3361e-08 -0 0 -0 
-0.39316 0.81791 0.054345 -0 0 -0 -27.024 51.874 42.978 -6.112 -1.8197 -2.1161 -6.112 -1.8197 -2.1161 -5.1293 -1.5439 -1.7645 -0 0 -0 -9.5017 -43.633 -18.734 11.366 6.1845 5.972 7.3108 -23.182 -36.434 -0 0 -0 7.2889 -23.483 3.2834 76.045 -51.037 33.7 2.9304 10.307 2.4758 12.805 -23.859 -1.9173 7.0579 -25.748 -3.4469 -27.024 51.874 42.978 56.054 -64.782 87.933 6.9863 38.554 -17.962 -0 0 -0 1.7157e-06 -11.831 -9.998e-09 -0 0 -0 -27.024 51.874 42.978 -88.18 -48.843 -49.382 16.669 15.701 22.251 -0 0 -0 0 0 -6.9369e-07 -0 0 -0 
-0.42366 0.83071 0.078677 -0 0 -0 -20.093 48.352 36.68 -6.663 -0.62975 -1.9556 -6.663 -0.62975 -1.9556 -5.5955 -0.54435 -1.638 -0 0 -0 -6.3717 -41.476 -15.961 9.9432 5.4313 6.9763 7.4036 -25.081 -35.444 -0 0 -0 9.4512 -20.325 4.2695 82.403 -50.123 39.057 2.0301 12.365 3.0878 13.88 -24.139 -0.023596 7.6212 -25.052 -1.6346 -20.093 48.352 36.68 37.716 -57.507 70.338 8.0067 29.501 -19.224 -0 0 -0 -1.1386e-06 -10.036 -3.2068e-06 -0 0 -0 -20.093 48.352 36.68 -83.321 -51.311 -42.054 19.614 18.554 21.578 -0 0 -0 1.7868e-07 -5.8747 3.4822e-06 -0 0 -0 
-0.45765 0.84338 0.10534 -0 0 -0 -13.513 43.62 30.965 -7.6468 0.30211 -1.773 -7.6468 0.30212 -1.773 -6.424 0.23792 -1.4923 -0 0 -0 -1.7256 -37.056 -12.843 8.0825 4.2962 8.605 7.2223 -27.177 -33.616 -0 0 -0 13.152 -15.87 4.3471 86.333 -48.025 42.225 1.5536 14.646 3.9297 14.528 -23.366 0.64063 7.449 -23.501 -0.99973 -13.513 43.62 30.965 24.567 -46.153 56.815 6.6954 18.098 -20.85 -0 0 -0 -3.3541e-07 -8.2952 -4.6254e-06 -0 0 -0 -13.513 43.62 30.965 -75.696 -53.001 -32.812 22.678 21.209 19.639 -0 0 -0 2.7833e-07 -7.2359 4.4019e-06 -0 0 -0 
-0.4946 0.85621 0.13446 -0 0 -0 -9.1673 39.521 26.667 -8.4734 0.7245 -1.8677 -8.4734 0.7245 -1.8677 -7.1192 0.59014 -1.5764 -0 0 -0 2.052 -32.016 -9.3349 5.9697 3.4746 11.44 6.9282 -28.89 -31.947 -0 0 -0 15.699 -11.539 4.3192 89.485 -45.457 43.452 2.0615 15.806 4.0713 15.252 -22.196 1.9431 7.4437 -22.031 0.13497 -9.1673 39.521 26.667 16.624 -34.864 45.167 5.2464 6.2873 -23.743 -0 0 -0 4.1735e-07 -8.8643 5.3844e-06 -0 0 -0 -9.1673 39.521 26.667 -68.387 -54.465 -25.432 26.034 23.35 16.117 -0 0 -0 -1.5608e-07 -7.6423 -2.3368e-06 -0 0 -0 
-0.53355 0.86954 0.16603 -0 0 -0 -6.4677 36.847 23.675 -9.1569 0.88499 -2.4797 -9.1568 0.88498 -2.4797 -7.6943 0.71694 -2.0929 -0 0 -0 3.8418 -28.266 -5.3516 4.6564 3.7266 13.345 6.649 -28.331 -30.344 -0 0 -0 15.352 -8.8638 4.7253 93.125 -43.232 43.539 3.6257 15.709 2.636 16.372 -21.35 4.2189 7.8035 -21.236 1.8478 -6.4677 36.847 23.675 12.503 -26.696 30.447 3.7863 -0.34634 -21.527 -0 0 -0 4.7726e-08 -11.823 4.6093e-07 -0 0 -0 -6.4677 36.847 23.675 -59.589 -55.652 -19.314 26.27 25.245 17.753 -0 0 -0 6.7021e-07 -9.55 -2.2331e-06 -0 0 -0 
-0.5731 0.88337 0.19951 -0 0 -0 -4.296 34.847 21.954 -9.7535 1.041 -3.3709 -9.7535 1.041 -3.3709 -8.1971 0.83614 -2.8442 -0 0 -0 4.0289 -25.51 -3.5291 4.9674 3.7987 12.81 6.5161 -22.689 -27.795 -0 0 -0 12.755 -7.1258 4.2892 96.295 -41.552 42.892 5.9826 14.057 -0.3293 17.4 -20.774 6.259 8.0569 -20.798 3.0882 -4.296 34.847 21.954 12.838 -26.549 18.451 -0.98517 5.612 -13.409 -0 0 -0 3.286e-07 -14.644 2.5574e-06 -0 0 -0 -4.296 34.847 21.954 -48.932 -55.902 -14.695 22.12 27.905 25.071 -0 0 -0 2.3468e-07 -10.088 2.659e-06 -0 0 -0 
-0.61152 0.89714 0.23357 -0 0 -0 -2.6582 33.133 20.99 -10.314 1.2224 -3.993 -10.314 1.2223 -3.993 -8.6699 0.9788 -3.3698 -0 0 -0 3.5863 -24.42 -6.9025 4.6023 3.251 13.636 6.2475 -13.11 -26.309 -0 0 -0 10.09 -5.6947 2.1119 96.639 -40.747 40.168 8.7623 11.48 -2.9866 17.989 -20.309 7.1359 7.9893 -20.378 3.3942 -2.6582 33.133 20.99 9.9316 -27.917 18.746 -3.0526 12.884 -9.0951 -0 0 -0 -1.0084e-06 -15.793 -1.0557e-06 -0 0 -0 -2.6582 33.133 20.99 -37.587 -55.466 -7.1863 16.982 29.418 30.723 -0 0 -0 7.5072e-08 -10.666 8.042e-07 -0 0 -0 
-0.64719 0.90997 0.26663 -0 0 -0 -1.7276 31.108 19.689 -10.526 1.2215 -4.0995 -10.526 1.2215 -4.0995 -8.8479 0.9758 -3.4596 -0 0 -0 3.056 -23.381 -10.626 2.3899 1.4415 14.633 5.8937 -4.0896 -27.247 -0 0 -0 7.8703 -4.2428 0.32626 92.822 -41.586 34.464 10.919 9.167 -4.2774 17.886 -19.374 7.1863 7.7411 -19.467 3.3763 -1.7276 31.108 19.689 4.7668 -25.904 25.748 -0.51609 15.732 -13.869 -0 0 -0 -2.7892e-07 -15.252 1.1336e-06 -0 0 -0 -1.7276 31.108 19.689 -25.297 -52.218 5.605 13.675 26.975 30.57 -0 0 -0 -9.3497e-08 -9.6788 -3.6344e-06 -0 0 -0 
-0.67902 0.92105 0.2977 -0 0 -0 -1.4982 28.361 18.229 -10.05 1.0359 -3.629 -10.05 1.036 -3.629 -8.4463 0.82768 -3.0614 -0 0 -0 1.4731 -22.347 -10.323 -0.52307 -0.7691 10.654 4.8926 1.795 -28.508 -0 0 -0 5.4172 -2.7487 -0.80298 86.345 -43 27.157 10.421 7.897 -4.0589 16.679 -18.056 6.3141 7.1745 -18.113 2.9786 -1.4982 28.361 18.229 1.5968 -26.387 28.104 2.9303 19.468 -19.375 -0 0 -0 2.9594e-07 -16.798 9.0841e-07 -0 0 -0 -1.4982 28.361 18.229 -15.812 -47.728 13.878 10.776 24.263 31.084 -0 0 -0 -1.7516e-07 -8.1059 -9.6215e-07 -0 0 -0 
-0.7066 0.92999 0.32672 -0 0 -0 -1.7901 25.235 17.136 -9.4014 0.79437 -3.0257 -9.4014 0.79437 -3.0257 -7.9001 0.63408 -2.551 -0 0 -0 0.44075 -20.915 -10.35 -3.4289 -3.5187 6.8527 3.0818 3.7562 -28.544 -0 0 -0 4.0439 -1.7296 -1.9726 79.161 -43.312 20.561 8.1942 7.5203 -3.4744 15.345 -16.512 5.0131 6.6507 -16.557 2.2716 -1.7901 25.235 17.136 1.4363 -25.557 26.346 2.5574 21.65 -16.869 -0 0 -0 -1.542e-07 -16.386 -3.2208e-07 -0 0 -0 -1.7901 25.235 17.136 -8.9049 -42.095 17.898 8.0238 21.013 33.236 -0 0 -0 2.7689e-07 -6.2609 1.7708e-07 -0 0 -0 
-0.73013 0.9368 0.3542 -0 0 -0 -1.9513 22.344 16.196 -9.1946 0.42452 -2.3725 -9.1946 0.42452 -2.3725 -7.7247 0.33109 -1.9979 -0 0 -0 1.0837 -19.295 -12.221 -5.4302 -6.3862 5.6934 0.85687 2.9824 -27.892 -0 0 -0 4.7368 -1.3302 -3.1475 72.619 -42.783 15.189 5.5594 7.753 -3.2971 14.55 -14.652 3.4444 6.2888 -14.824 1.3579 -1.9513 22.344 16.196 3.6361 -23.092 24.424 -0.705 21.817 -8.514 -0 0 -0 -2.0787e-07 -14.421 -7.9275e-07 -0 0 -0 -1.9513 22.344 16.196 -3.8894 -35.928 21.391 5.9311 17.11 34.294 -0 0 -0 -4.0568e-08 -4.3292 -3.8988e-06 -0 0 -0 
-0.75023 0.9417 0.38055 -0 0 -0 -1.9558 19.395 15.665 -9.3887 -0.050572 -1.9205 -9.3887 -0.050573 -1.9205 -7.8864 -0.063646 -1.613 -0 0 -0 2.9491 -18.248 -13.302 -5.7823 -7.5975 6.0821 -1.3722 1.5005 -27.934 -0 0 -0 7.1205 -1.1349 -3.389 66.462 -42 10.248 3.7793 8.357 -3.0049 14.305 -12.137 1.8872 6.0804 -12.593 0.30174 -1.9558 19.395 15.665 5.3013 -20.164 22.954 -2.5988 20.203 -2.7503 -0 0 -0 3.7963e-07 -12.199 5.5613e-06 -0 0 -0 -1.9558 19.395 15.665 -1.3723 -29.319 24.106 5.3422 12.968 33.873 -0 0 -0 1.2354e-07 -2.6057 -3.9553e-06 -0 0 -0 
-0.76781 0.94488 0.40571 -0 0 -0 -1.991 15.944 16.039 -9.7406 -0.35218 -1.5937 -9.7406 -0.35218 -1.5937 -8.1815 -0.31412 -1.335 -0 0 -0 4.9244 -17.96 -12.783 -4.236 -6.629 7.3406 -3.4186 0.50288 -29.329 -0 0 -0 10.142 -0.97718 -3.4447 59.89 -40.669 5.6884 4.2176 8.2547 -3.3876 14.103 -9.2794 0.03034 5.719 -9.9072 -1.2063 -1.991 15.944 16.039 7.188 -16.419 22.444 -2.8197 17.549 -1.2868 -0 0 -0 -1.2208e-07 -8.7808 1.1981e-06 -0 0 -0 -1.991 15.944 16.039 0.38648 -22.546 24.238 4.9034 9.9052 34.511 -0 0 -0 -0 0 4.1355e-07 -0 0 -0 
-0.78365 0.94653 0.42941 -0 0 -0 -1.9379 12.563 17.291 -10.303 -0.682 -1.2441 -10.303 -0.682 -1.2441 -8.6534 -0.58809 -1.0371 -0 0 -0 6.6199 -17.55 -11.843 -0.82814 -4.3173 10.5 -4.9908 0.13919 -31.543 -0 0 -0 13.245 -0.34818 -4.298 53.005 -38.46 2.3873 6.1404 7.6102 -4.2772 14.035 -6.4653 -2.1066 5.2831 -7.2866 -2.977 -1.9379 12.563 17.291 9.3604 -13.639 23.834 -1.7936 15.61 -3.5976 -0 0 -0 -4.0489e-07 -5.2582 4.8887e-07 -0 0 -0 -1.9379 12.563 17.291 2.1054 -17.252 21.772 4.4068 8.9449 36.769 -0 0 -0 -0 0 4.2689e-07 -0 0 -0 
